<svg width="40" height="40" viewBox="0 0 40 40" fill="none" xmlns="http://www.w3.org/2000/svg">
<g clip-path="url(#clip0_1_104)">
<g clip-path="url(#clip1_1_104)">
<g clip-path="url(#clip2_1_104)">
<g clip-path="url(#clip3_1_104)">
<g clip-path="url(#clip4_1_104)">
<path d="M0 0H40V40H0V0Z" fill="#2F318F"/>
<path d="M11.2903 5.48386H17.8225V30.8871C17.8225 31.0796 17.899 31.2642 18.0351 31.4003C18.1712 31.5364 18.3558 31.6129 18.5483 31.6129H32.2408L29.821 34.5161H11.2903L12.5973 32.7739C12.6912 32.6483 12.742 32.4956 12.7419 32.3387V7.66128C12.742 7.50439 12.6912 7.35169 12.5973 7.22606L11.2903 5.48386ZM19.9999 8.38708C27.2236 8.38708 33.0645 14.2279 33.0645 21.4516C33.0645 24.8048 31.7973 27.8486 29.7247 30.1613H27.6733C30.0869 28.0322 31.6128 24.9181 31.6128 21.4516C31.6128 15.0468 26.4048 9.83869 19.9999 9.83869C19.7564 9.83869 19.5143 9.8481 19.2741 9.86289V8.42525C19.5159 8.41181 19.7545 8.38695 19.9999 8.38695V8.38708ZM11.2903 11.7199V13.7853C9.48825 15.8309 8.38704 18.5142 8.38704 21.4516C8.38704 24.389 9.48838 27.0718 11.2903 29.118V31.1876C8.61782 28.7961 6.93542 25.325 6.93542 21.4516C6.93542 17.5789 8.61916 14.1117 11.2903 11.7199Z" fill="#D0A94A"/>
</g>
</g>
</g>
</g>
</g>
<defs>
<clipPath id="clip0_1_104">
<rect width="40" height="40" rx="12" fill="white"/>
</clipPath>
<clipPath id="clip1_1_104">
<rect width="40" height="40" rx="12" fill="white"/>
</clipPath>
<clipPath id="clip2_1_104">
<rect width="40" height="40" fill="white"/>
</clipPath>
<clipPath id="clip3_1_104">
<rect width="40" height="40" fill="white"/>
</clipPath>
<clipPath id="clip4_1_104">
<rect width="40" height="40" fill="white"/>
</clipPath>
</defs>
</svg>
